<svg width="271" height="399" viewBox="0 0 271 399" fill="none" xmlns="http://www.w3.org/2000/svg">
<path d="M166.322 120.669C166.322 128.495 164.063 134.582 160.067 138.061C158.85 139.104 151.378 144.322 149.988 145.018C144.775 147.105 144.254 141.887 136.956 137.713C120.622 128.321 107.415 105.364 107.415 86.5805C107.415 79.4497 102.724 78.4062 106.025 74.7539C106.894 73.8843 114.54 68.4928 115.582 67.7971C120.969 64.3187 128.615 64.6665 137.13 69.5363C153.116 78.928 166.322 101.712 166.322 120.669Z" fill="url(#paint0_linear_30_3839)"/>
<path d="M159.372 125.365C159.372 144.148 146.166 151.8 129.831 142.409C113.497 133.017 100.291 110.06 100.291 91.2763C100.291 72.493 113.497 64.8405 129.831 74.2321C146.166 83.6238 159.372 106.581 159.372 125.365Z" fill="url(#paint1_linear_30_3839)"/>
<path d="M148.279 140.25C158.501 134.343 158.541 115.258 148.369 97.6236C138.196 79.9889 121.662 70.482 111.44 76.3893C101.218 82.2966 101.177 101.381 111.35 119.016C121.523 136.65 138.056 146.157 148.279 140.25Z" stroke="#4D0063" stroke-width="0.6873" stroke-miterlimit="10"/>
<path d="M137.998 99.6245V93.5373L133.133 90.7546V96.32L128.267 93.5373V87.9718L123.402 85.1891V90.7546L118.536 87.9718V115.625L123.402 118.408V123.973L128.267 126.756V121.191L133.133 123.973V129.539L137.998 132.321V126.234C140.257 126.582 141.995 125.539 142.516 123.104C143.037 120.843 142.516 117.538 140.952 114.582C142.516 113.538 143.211 110.929 142.516 107.973C141.995 105.016 140.257 101.885 137.998 99.6245ZM123.575 96.32L135.565 103.277C136.955 103.972 137.998 105.886 137.998 107.451C137.998 109.016 136.955 109.538 135.565 108.842L123.575 101.885V96.32ZM135.565 119.799L123.575 112.842V107.277L135.565 114.234C136.955 114.929 137.998 116.843 137.998 118.408C137.998 119.973 136.955 120.669 135.565 119.799Z" fill="white"/>
<path d="M132.264 395.984L9.58417 325.373C4.02362 322.242 4.02363 305.546 6.2826 299.98L121.316 240.326C127.572 236.673 137.303 236.326 142.864 239.456L268.323 303.459C272.841 310.763 270.409 327.981 263.979 331.634L153.985 395.288C147.381 398.767 137.651 399.115 132.264 395.984Z" fill="url(#paint2_linear_30_3839)"/>
<path d="M132.264 377.723L9.5842 307.111C4.02365 303.98 4.71872 298.415 11.1481 294.763L121.143 231.108C127.398 227.456 137.129 227.108 142.69 230.238L265.369 300.85C270.93 303.98 270.235 309.546 263.805 313.198L153.811 376.853C147.382 380.505 137.651 380.853 132.264 377.723Z" fill="url(#paint3_linear_30_3839)"/>
<path d="M132.09 369.548L23.833 307.111C18.2724 303.98 18.9675 298.415 25.3969 294.763L121.49 239.282C127.746 235.63 137.477 235.282 143.037 238.413L251.294 300.85C256.855 303.98 256.16 309.546 249.73 313.198L153.637 368.679C147.208 372.331 137.477 372.679 132.09 369.548Z" fill="url(#paint4_linear_30_3839)"/>
<path opacity="0.1" d="M136.434 344.678C182.979 344.678 220.711 326.301 220.711 303.633C220.711 280.964 182.979 262.587 136.434 262.587C89.8893 262.587 52.1572 280.964 52.1572 303.633C52.1572 326.301 89.8893 344.678 136.434 344.678Z" fill="url(#paint5_radial_30_3839)"/>
<path opacity="0.1" d="M188.391 325.547C160.762 339.112 115.756 339.112 88.127 325.547C60.498 311.981 60.498 290.241 88.127 276.675C115.756 263.109 160.762 263.109 188.391 276.675C216.02 290.241 216.02 311.981 188.391 325.547Z" fill="url(#paint6_radial_30_3839)"/>
<path d="M77.3535 273.718L200.902 274.762V291.98C200.902 301.198 194.82 310.242 182.83 317.198C158.676 331.112 119.579 331.112 95.4253 317.198C83.4354 310.242 77.3535 301.024 77.3535 291.98V273.718Z" fill="url(#paint7_linear_30_3839)"/>
<path d="M83.4353 271.631H81.3501V304.395H83.4353V271.631Z" fill="#4D0063"/>
<path d="M90.5598 271.631H88.4746V309.372H90.5598V271.631Z" fill="#4D0063"/>
<path d="M97.5105 271.631H95.4253V309.372H97.5105V271.631Z" fill="#4D0063"/>
<path d="M104.635 271.631H102.55V309.372H104.635V271.631Z" fill="#4D0063"/>
<path d="M111.759 271.631H109.674V309.372H111.759V271.631Z" fill="#4D0063"/>
<path d="M118.884 271.631H116.798V309.372H118.884V271.631Z" fill="#4D0063"/>
<path d="M126.008 271.631H123.923V309.372H126.008V271.631Z" fill="#4D0063"/>
<path d="M133.133 271.631H131.048V309.372H133.133V271.631Z" fill="#4D0063"/>
<path d="M140.257 271.631H138.172V309.372H140.257V271.631Z" fill="#4D0063"/>
<path d="M147.382 271.631H145.296V309.372H147.382V271.631Z" fill="#4D0063"/>
<path d="M154.332 271.631H152.247V309.372H154.332V271.631Z" fill="#4D0063"/>
<path d="M161.456 271.631H159.371V309.372H161.456V271.631Z" fill="#4D0063"/>
<path d="M168.581 271.631H166.496V309.372H168.581V271.631Z" fill="#4D0063"/>
<path d="M175.705 271.631H173.62V309.372H175.705V271.631Z" fill="#4D0063"/>
<path d="M182.83 271.631H180.745V309.372H182.83V271.631Z" fill="#4D0063"/>
<path d="M189.954 271.631H187.869V309.372H189.954V271.631Z" fill="#4D0063"/>
<path d="M197.079 271.631H194.994V303.622H197.079V271.631Z" fill="#4D0063"/>
<path d="M139.215 311.111C173.38 311.111 201.076 295.149 201.076 275.458C201.076 255.767 173.38 239.804 139.215 239.804C105.05 239.804 77.3535 255.767 77.3535 275.458C77.3535 295.149 105.05 311.111 139.215 311.111Z" fill="url(#paint8_linear_30_3839)"/>
<path d="M139.214 304.85C169.061 304.85 193.256 290.912 193.256 273.718C193.256 256.525 169.061 242.587 139.214 242.587C109.368 242.587 85.1729 256.525 85.1729 273.718C85.1729 290.912 109.368 304.85 139.214 304.85Z" stroke="#4D0063" stroke-width="1.1865" stroke-miterlimit="10"/>
<path d="M132.611 254.413L124.792 249.891L117.667 254.065L124.792 258.24L117.667 262.414L110.543 258.24L103.418 262.414L110.543 266.588L103.418 270.762L139.214 291.458L146.339 287.284L153.463 291.458L160.588 287.284L153.463 283.11L160.588 278.936L167.712 283.11L174.837 278.936L167.017 274.414C169.276 271.805 168.929 268.675 166.496 266.24C163.889 263.805 159.371 262.066 154.332 262.066C154.158 259.109 151.378 256.5 147.034 254.935C142.516 253.196 137.129 253.022 132.611 254.413ZM117.667 270.588L135.565 260.327C137.477 259.109 140.778 259.109 142.69 260.327C144.601 261.544 144.601 263.283 142.69 264.501L124.792 274.762L117.667 270.588ZM156.939 272.675L139.041 282.936L131.916 278.762L149.814 268.501C151.726 267.283 155.027 267.283 156.939 268.501C159.024 269.544 159.024 271.457 156.939 272.675Z" fill="white"/>
<path d="M77.3535 253.544L200.902 254.587V271.805C200.902 281.023 194.82 290.067 182.83 297.024C158.676 310.937 119.579 310.937 95.4253 297.024C83.4354 290.067 77.3535 280.849 77.3535 271.805V253.544Z" fill="url(#paint9_linear_30_3839)"/>
<path d="M83.4353 251.283H81.3501V304.395H83.4353V251.283Z" fill="#4D0063"/>
<path d="M90.5598 251.283H88.4746V312.347H90.5598V251.283Z" fill="#4D0063"/>
<path d="M97.5105 251.283H95.4253V317.192H97.5105V251.283Z" fill="#4D0063"/>
<path d="M104.635 251.283H102.55V320.803H104.635V251.283Z" fill="#4D0063"/>
<path d="M111.759 251.283H109.674V323.314H111.759V251.283Z" fill="#4D0063"/>
<path d="M118.884 251.283H116.798V325.208H118.884V251.283Z" fill="#4D0063"/>
<path d="M126.008 251.283H123.923V326.485H126.008V251.283Z" fill="#4D0063"/>
<path d="M133.133 251.283H131.048V327.634H133.133V251.283Z" fill="#4D0063"/>
<path d="M140.257 251.283H138.172V327.634H140.257V251.283Z" fill="#4D0063"/>
<path d="M147.382 251.283H145.296V327.634H147.382V251.283Z" fill="#4D0063"/>
<path d="M154.332 251.283H152.247V326.418H154.332V251.283Z" fill="#4D0063"/>
<path d="M161.456 251.283H159.371V325.225H161.456V251.283Z" fill="#4D0063"/>
<path d="M168.581 251.283H166.496V323.288H168.581V251.283Z" fill="#4D0063"/>
<path d="M175.705 251.283H173.62V320.904H175.705V251.283Z" fill="#4D0063"/>
<path d="M182.83 251.283H180.745V317.278H182.83V251.283Z" fill="#4D0063"/>
<path d="M189.954 251.283H187.869V312.509H189.954V251.283Z" fill="#4D0063"/>
<path d="M197.079 251.283H194.994V304.463H197.079V251.283Z" fill="#4D0063"/>
<path d="M139.215 290.763C173.38 290.763 201.076 274.8 201.076 255.109C201.076 235.418 173.38 219.455 139.215 219.455C105.05 219.455 77.3535 235.418 77.3535 255.109C77.3535 274.8 105.05 290.763 139.215 290.763Z" fill="url(#paint10_linear_30_3839)"/>
<path d="M139.214 284.675C169.061 284.675 193.256 270.737 193.256 253.544C193.256 236.35 169.061 222.412 139.214 222.412C109.368 222.412 85.1729 236.35 85.1729 253.544C85.1729 270.737 109.368 284.675 139.214 284.675Z" stroke="#4D0063" stroke-width="1.1865" stroke-miterlimit="10"/>
<path d="M132.611 234.065L124.792 229.543L117.667 233.717L124.792 237.891L117.667 242.065L110.543 237.891L103.418 242.065L110.543 246.239L103.418 250.413L139.214 271.11L146.339 266.935L153.463 271.11L160.588 266.935L153.463 262.761L160.588 258.587L167.712 262.761L174.837 258.587L167.017 254.065C169.276 251.457 168.929 248.326 166.496 245.891C163.889 243.456 159.371 241.717 154.332 241.717C154.158 238.76 151.378 236.152 147.034 234.586C142.516 233.021 137.129 232.847 132.611 234.065ZM117.667 250.239L135.565 239.978C137.477 238.76 140.778 238.76 142.69 239.978C144.601 241.195 144.601 242.935 142.69 244.152L124.792 254.413L117.667 250.239ZM156.939 252.326L139.041 262.587L131.916 258.413L149.814 248.152C151.726 246.935 155.027 246.935 156.939 248.152C159.024 249.37 159.024 251.109 156.939 252.326Z" fill="white"/>
<path d="M77.3535 233.195L200.902 234.239V251.457C200.902 260.674 194.82 269.718 182.83 276.675C158.676 290.589 119.579 290.589 95.4253 276.675C83.4354 269.718 77.3535 260.5 77.3535 251.457V233.195Z" fill="url(#paint11_linear_30_3839)"/>
<path d="M83.4353 230.934H81.3501V289.023H83.4353V230.934Z" fill="#4D0063"/>
<path d="M90.5598 230.934H88.4746V289.023H90.5598V230.934Z" fill="#4D0063"/>
<path d="M97.5105 230.934H95.4253V289.023H97.5105V230.934Z" fill="#4D0063"/>
<path d="M104.635 230.934H102.55V289.023H104.635V230.934Z" fill="#4D0063"/>
<path d="M111.759 230.934H109.674V289.023H111.759V230.934Z" fill="#4D0063"/>
<path d="M118.884 230.934H116.798V289.023H118.884V230.934Z" fill="#4D0063"/>
<path d="M126.008 230.934H123.923V289.023H126.008V230.934Z" fill="#4D0063"/>
<path d="M133.133 230.934H131.048V289.023H133.133V230.934Z" fill="#4D0063"/>
<path d="M140.257 230.934H138.172V289.023H140.257V230.934Z" fill="#4D0063"/>
<path d="M147.382 230.934H145.296V289.023H147.382V230.934Z" fill="#4D0063"/>
<path d="M154.332 230.934H152.247V289.023H154.332V230.934Z" fill="#4D0063"/>
<path d="M161.456 230.934H159.371V289.023H161.456V230.934Z" fill="#4D0063"/>
<path d="M168.581 230.934H166.496V289.023H168.581V230.934Z" fill="#4D0063"/>
<path d="M175.705 230.934H173.62V289.023H175.705V230.934Z" fill="#4D0063"/>
<path d="M182.83 230.934H180.745V289.023H182.83V230.934Z" fill="#4D0063"/>
<path d="M189.954 230.934H187.869V289.023H189.954V230.934Z" fill="#4D0063"/>
<path d="M197.079 230.934H194.994V289.023H197.079V230.934Z" fill="#4D0063"/>
<path d="M139.215 270.414C173.38 270.414 201.076 254.451 201.076 234.76C201.076 215.069 173.38 199.107 139.215 199.107C105.05 199.107 77.3535 215.069 77.3535 234.76C77.3535 254.451 105.05 270.414 139.215 270.414Z" fill="url(#paint12_linear_30_3839)"/>
<path d="M177.269 255.283C156.244 267.457 122.011 267.457 100.986 255.283C79.9599 243.108 79.9599 223.282 100.986 211.107C122.011 198.933 156.244 198.933 177.269 211.107C198.469 223.282 198.469 243.108 177.269 255.283Z" stroke="#4D0063" stroke-width="1.1865" stroke-miterlimit="10"/>
<path d="M132.611 213.89L124.792 209.368L117.667 213.542L124.792 217.716L117.667 221.89L110.543 217.716L103.418 221.89L110.543 226.064L103.418 230.238L139.214 250.935L146.339 246.761L153.463 250.935L160.588 246.761L153.463 242.587L160.588 238.413L167.712 242.587L174.837 238.413L167.017 233.891C169.276 231.282 168.929 228.151 166.496 225.716C163.889 223.282 159.371 221.542 154.332 221.542C154.158 218.586 151.378 215.977 147.034 214.412C142.516 212.672 137.129 212.499 132.611 213.89ZM117.667 229.891L135.565 219.629C137.477 218.412 140.778 218.412 142.69 219.629C144.601 220.847 144.601 222.586 142.69 223.803L124.792 234.065L117.667 229.891ZM156.939 231.978L139.041 242.239L131.916 238.065L149.814 227.804C151.726 226.586 155.027 226.586 156.939 227.804C159.024 229.021 159.024 230.934 156.939 231.978Z" fill="white"/>
<path d="M77.3535 212.846L200.902 213.89V231.108C200.902 240.326 194.82 249.37 182.83 256.326C158.676 270.24 119.579 270.24 95.4253 256.326C83.4354 249.37 77.3535 240.152 77.3535 231.108V212.846Z" fill="url(#paint13_linear_30_3839)"/>
<path d="M83.4353 210.759H81.3501V268.849H83.4353V210.759Z" fill="#4D0063"/>
<path d="M90.5598 210.759H88.4746V268.849H90.5598V210.759Z" fill="#4D0063"/>
<path d="M97.5105 210.759H95.4253V268.849H97.5105V210.759Z" fill="#4D0063"/>
<path d="M104.635 210.759H102.55V268.849H104.635V210.759Z" fill="#4D0063"/>
<path d="M111.759 210.759H109.674V268.849H111.759V210.759Z" fill="#4D0063"/>
<path d="M118.884 210.759H116.798V268.849H118.884V210.759Z" fill="#4D0063"/>
<path d="M126.008 210.759H123.923V268.849H126.008V210.759Z" fill="#4D0063"/>
<path d="M133.133 210.759H131.048V268.849H133.133V210.759Z" fill="#4D0063"/>
<path d="M140.257 210.759H138.172V268.849H140.257V210.759Z" fill="#4D0063"/>
<path d="M147.382 210.759H145.296V268.849H147.382V210.759Z" fill="#4D0063"/>
<path d="M154.332 210.759H152.247V268.849H154.332V210.759Z" fill="#4D0063"/>
<path d="M161.456 210.759H159.371V268.849H161.456V210.759Z" fill="#4D0063"/>
<path d="M168.581 210.759H166.496V268.849H168.581V210.759Z" fill="#4D0063"/>
<path d="M175.705 210.759H173.62V268.849H175.705V210.759Z" fill="#4D0063"/>
<path d="M182.83 210.759H180.745V268.849H182.83V210.759Z" fill="#4D0063"/>
<path d="M189.954 210.759H187.869V268.849H189.954V210.759Z" fill="#4D0063"/>
<path d="M197.079 210.759H194.994V268.849H197.079V210.759Z" fill="#4D0063"/>
<path d="M182.83 239.804C158.676 253.718 119.579 253.718 95.4253 239.804C71.2717 225.89 71.2717 203.281 95.4253 189.367C119.579 175.454 158.676 175.454 182.83 189.367C206.984 203.281 206.984 225.89 182.83 239.804Z" fill="url(#paint14_linear_30_3839)"/>
<path d="M139.214 243.978C169.061 243.978 193.256 230.04 193.256 212.846C193.256 195.653 169.061 181.715 139.214 181.715C109.368 181.715 85.1729 195.653 85.1729 212.846C85.1729 230.04 109.368 243.978 139.214 243.978Z" stroke="#4D0063" stroke-width="1.1865" stroke-miterlimit="10"/>
<path d="M132.611 193.541L124.792 189.019L117.667 193.193L124.792 197.368L117.667 201.542L110.543 197.368L103.418 201.542L110.543 205.716L103.418 209.89L139.214 230.586L146.339 226.412L153.463 230.586L160.588 226.412L153.463 222.238L160.588 218.064L167.712 222.238L174.837 218.064L167.017 213.542C169.276 210.933 168.929 207.803 166.496 205.368C163.889 202.933 159.371 201.194 154.332 201.194C154.158 198.237 151.378 195.628 147.034 194.063C142.516 192.324 137.129 192.324 132.611 193.541ZM117.667 209.716L135.565 199.455C137.477 198.237 140.778 198.237 142.69 199.455C144.601 200.672 144.601 202.411 142.69 203.629L124.792 213.89L117.667 209.716ZM156.939 211.803L139.041 222.064L131.916 217.89L149.814 207.629C151.726 206.411 155.027 206.411 156.939 207.629C159.024 208.672 159.024 210.585 156.939 211.803Z" fill="white"/>
<path d="M77.3535 192.672L200.902 193.715V210.933C200.902 220.151 194.82 229.195 182.83 236.152C158.676 250.065 119.579 250.065 95.4253 236.152C83.4354 229.195 77.3535 219.977 77.3535 210.933V192.672Z" fill="url(#paint15_linear_30_3839)"/>
<path d="M83.4353 190.411H81.3501V248.5H83.4353V190.411Z" fill="#4D0063"/>
<path d="M90.5596 190.411H88.4744V248.5H90.5596V190.411Z" fill="#4D0063"/>
<path d="M97.5105 190.411H95.4253V248.5H97.5105V190.411Z" fill="#4D0063"/>
<path d="M104.635 190.411H102.55V248.5H104.635V190.411Z" fill="#4D0063"/>
<path d="M111.759 190.411H109.674V248.5H111.759V190.411Z" fill="#4D0063"/>
<path d="M118.884 190.411H116.798V248.5H118.884V190.411Z" fill="#4D0063"/>
<path d="M126.008 190.411H123.923V248.5H126.008V190.411Z" fill="#4D0063"/>
<path d="M133.133 190.411H131.047V248.5H133.133V190.411Z" fill="#4D0063"/>
<path d="M140.257 190.411H138.172V248.5H140.257V190.411Z" fill="#4D0063"/>
<path d="M147.382 190.411H145.296V248.5H147.382V190.411Z" fill="#4D0063"/>
<path d="M154.332 190.411H152.247V248.5H154.332V190.411Z" fill="#4D0063"/>
<path d="M161.456 190.411H159.371V248.5H161.456V190.411Z" fill="#4D0063"/>
<path d="M168.581 190.411H166.496V248.5H168.581V190.411Z" fill="#4D0063"/>
<path d="M175.705 190.411H173.62V248.5H175.705V190.411Z" fill="#4D0063"/>
<path d="M182.83 190.411H180.745V248.5H182.83V190.411Z" fill="#4D0063"/>
<path d="M189.954 190.411H187.869V248.5H189.954V190.411Z" fill="#4D0063"/>
<path d="M197.079 190.411H194.994V248.5H197.079V190.411Z" fill="#4D0063"/>
<path d="M182.83 219.455C158.676 233.369 119.579 233.369 95.425 219.455C71.2714 205.542 71.2714 182.932 95.425 169.019C119.579 155.105 158.676 155.105 182.83 169.019C206.983 182.932 206.983 205.542 182.83 219.455Z" fill="url(#paint16_linear_30_3839)"/>
<path d="M139.214 223.803C169.061 223.803 193.256 209.865 193.256 192.672C193.256 175.478 169.061 161.54 139.214 161.54C109.368 161.54 85.1729 175.478 85.1729 192.672C85.1729 209.865 109.368 223.803 139.214 223.803Z" stroke="#4D0063" stroke-width="1.1865" stroke-miterlimit="10"/>
<path d="M132.611 173.193L124.792 168.671L117.667 172.845L124.792 177.019L117.667 181.193L110.543 177.019L103.418 181.193L110.543 185.367L103.418 189.541L139.214 210.238L146.339 206.064L153.463 210.238L160.588 206.064L153.463 201.889L160.588 197.715L167.712 201.889L174.837 197.715L167.017 193.193C169.276 190.585 168.929 187.454 166.496 185.019C163.889 182.584 159.371 180.845 154.332 180.845C154.158 177.888 151.378 175.28 147.034 173.714C142.516 172.149 137.129 171.975 132.611 173.193ZM117.667 189.367L135.565 179.106C137.477 177.888 140.778 177.888 142.69 179.106C144.601 180.323 144.601 182.063 142.69 183.28L124.792 193.541L117.667 189.367ZM156.939 191.454L139.041 201.716L131.916 197.541L149.814 187.28C151.726 186.063 155.027 186.063 156.939 187.28C159.024 188.498 159.024 190.237 156.939 191.454Z" fill="white"/>
<g opacity="0.5">
<path opacity="0.5" d="M204.899 114.929H204.551C204.377 114.929 204.377 114.756 204.377 114.756V114.408C204.377 114.234 204.551 114.234 204.551 114.234H204.899C205.072 114.234 205.072 114.408 205.072 114.408V114.756C205.072 114.756 205.072 114.929 204.899 114.929Z" fill="white"/>
<path opacity="0.5" d="M201.249 166.41H200.902C200.728 166.41 200.728 166.236 200.728 166.236V165.888C200.728 165.714 200.902 165.714 200.902 165.714H201.249C201.423 165.714 201.423 165.888 201.423 165.888V166.236C201.423 166.236 201.423 166.41 201.249 166.41Z" fill="white"/>
<path opacity="0.5" d="M177.617 155.279H177.269C177.096 155.279 177.096 155.105 177.096 155.105V154.757C177.096 154.583 177.269 154.583 177.269 154.583H177.617C177.791 154.583 177.791 154.757 177.791 154.757V154.931C177.964 155.105 177.791 155.279 177.617 155.279Z" fill="white"/>
<path opacity="0.5" d="M161.805 158.931H161.457C161.283 158.931 161.283 158.757 161.283 158.757V158.409C161.283 158.236 161.457 158.236 161.457 158.236H161.805C161.978 158.236 161.978 158.409 161.978 158.409V158.757C162.152 158.757 161.978 158.931 161.805 158.931Z" fill="white"/>
<path opacity="0.5" d="M153.638 142.583L153.29 142.409C153.116 142.409 153.116 142.235 153.116 142.061L153.29 141.713C153.29 141.539 153.464 141.539 153.638 141.539L153.985 141.713C154.159 141.713 154.159 141.887 154.159 142.061L153.985 142.409C153.985 142.583 153.811 142.583 153.638 142.583Z" fill="white"/>
<path opacity="0.5" d="M141.126 173.714L140.778 173.541C140.604 173.541 140.604 173.367 140.604 173.193L140.778 172.845C140.778 172.671 140.952 172.671 141.126 172.671L141.473 172.845C141.647 172.845 141.647 173.019 141.647 173.193L141.473 173.541C141.473 173.714 141.3 173.714 141.126 173.714Z" fill="white"/>
<path opacity="0.5" d="M122.185 128.843L121.838 128.669C121.664 128.669 121.664 128.495 121.664 128.321L121.838 127.973C121.838 127.8 122.012 127.8 122.185 127.8L122.533 127.973C122.707 127.973 122.707 128.147 122.707 128.321L122.533 128.669C122.359 128.843 122.185 128.843 122.185 128.843Z" fill="white"/>
<path opacity="0.5" d="M90.2125 142.931L89.8649 142.757C89.6912 142.757 89.6912 142.583 89.6912 142.409L89.8649 142.061C89.8649 141.887 90.0387 141.887 90.2125 141.887L90.56 142.061C90.7338 142.061 90.7338 142.235 90.7338 142.409L90.56 142.757C90.3862 142.931 90.3862 143.104 90.2125 142.931Z" fill="white"/>
<path opacity="0.5" d="M105.851 189.715L105.504 189.541C105.33 189.541 105.33 189.367 105.33 189.193L105.504 188.845C105.504 188.672 105.678 188.672 105.851 188.672L106.199 188.845C106.373 188.845 106.373 189.019 106.373 189.193L106.199 189.541C106.025 189.715 106.025 189.889 105.851 189.715Z" fill="white"/>
<path opacity="0.5" d="M111.76 157.888L111.412 157.714C111.238 157.714 111.238 157.54 111.238 157.366L111.412 157.018C111.412 156.844 111.586 156.844 111.76 156.844L112.107 157.018C112.281 157.018 112.281 157.192 112.281 157.366L112.107 157.714C112.107 157.888 111.933 157.888 111.76 157.888Z" fill="white"/>
<path opacity="0.5" d="M90.2125 119.277L89.8649 119.104C89.6912 119.104 89.6912 118.93 89.6912 118.756L89.8649 118.408C89.8649 118.234 90.0387 118.234 90.2125 118.234L90.56 118.408C90.7338 118.408 90.7338 118.582 90.7338 118.756L90.56 119.104C90.3862 119.277 90.3862 119.277 90.2125 119.277Z" fill="white"/>
<path opacity="0.5" d="M64.8424 150.409L64.4948 150.235C64.3211 150.235 64.321 150.061 64.321 149.887L64.4948 149.54C64.4948 149.366 64.6686 149.366 64.8424 149.366L65.1899 149.54C65.3636 149.54 65.3637 149.713 65.3637 149.887L65.1899 150.235C65.1899 150.409 65.0161 150.409 64.8424 150.409Z" fill="white"/>
<path opacity="0.5" d="M64.8424 126.756L64.4948 126.582C64.3211 126.582 64.321 126.408 64.321 126.234L64.4948 125.886C64.4948 125.712 64.6686 125.712 64.8424 125.712L65.1899 125.886C65.3636 125.886 65.3637 126.06 65.3637 126.234L65.1899 126.582C65.1899 126.756 65.0161 126.756 64.8424 126.756Z" fill="white"/>
<path opacity="0.5" d="M220.711 142.583L220.364 142.409C220.19 142.409 220.19 142.235 220.19 142.061L220.364 141.713C220.364 141.539 220.537 141.539 220.711 141.539L221.059 141.713C221.233 141.713 221.233 141.887 221.233 142.061L221.059 142.409C220.885 142.583 220.711 142.583 220.711 142.583Z" fill="white"/>
<path opacity="0.5" d="M222.797 126.756L222.449 126.582C222.275 126.582 222.275 126.408 222.275 126.234L222.449 125.886C222.449 125.712 222.623 125.712 222.797 125.712L223.144 125.886C223.318 125.886 223.318 126.06 223.318 126.234L223.144 126.582C222.97 126.756 222.797 126.756 222.797 126.756Z" fill="white"/>
<path opacity="0.5" d="M191.692 149.192L191.345 149.018C191.171 149.018 191.171 148.844 191.171 148.67L191.345 148.322C191.345 148.148 191.518 148.148 191.692 148.148L192.04 148.322C192.213 148.322 192.213 148.496 192.213 148.67L192.04 149.018C191.866 149.018 191.692 149.192 191.692 149.192Z" fill="white"/>
<path opacity="0.5" d="M178.66 121.538L178.312 121.364C178.139 121.364 178.139 121.191 178.139 121.017L178.312 120.669C178.312 120.495 178.486 120.495 178.66 120.495L179.007 120.669C179.181 120.669 179.181 120.843 179.181 121.017L179.007 121.364C178.834 121.538 178.66 121.538 178.66 121.538Z" fill="white"/>
<path opacity="0.5" d="M144.08 201.889H143.732C143.559 201.889 143.559 201.716 143.559 201.716V201.368C143.559 201.194 143.732 201.194 143.732 201.194H144.08C144.254 201.194 144.254 201.368 144.254 201.368V201.716C144.254 201.889 144.254 201.889 144.08 201.889Z" fill="white"/>
<path opacity="0.5" d="M183.525 176.323L183.178 176.149C183.004 176.149 183.004 175.975 183.004 175.801L183.178 175.454C183.178 175.28 183.351 175.28 183.525 175.28L183.873 175.454C184.047 175.454 184.047 175.628 184.047 175.801L183.873 176.149C183.873 176.323 183.699 176.323 183.525 176.323Z" fill="white"/>
<path opacity="0.5" d="M90.9073 163.627L90.5598 163.453C90.386 163.453 90.386 163.279 90.386 163.105L90.5598 162.757C90.5598 162.584 90.7335 162.584 90.9073 162.584L91.2548 162.757C91.4286 162.757 91.4286 162.931 91.4286 163.105L91.2548 163.453C91.2548 163.627 91.0811 163.627 90.9073 163.627Z" fill="white"/>
<path opacity="0.5" d="M159.371 192.15L159.024 191.976C158.85 191.976 158.85 191.802 158.85 191.628L159.024 191.28C159.024 191.106 159.198 191.106 159.371 191.106L159.719 191.28C159.893 191.28 159.893 191.454 159.893 191.628L159.719 191.976C159.545 192.15 159.371 192.15 159.371 192.15Z" fill="white"/>
<path opacity="0.5" d="M167.365 132.321L167.018 132.148C166.844 132.148 166.844 131.974 166.844 131.8L167.018 131.452C167.018 131.278 167.191 131.278 167.365 131.278L167.713 131.452C167.886 131.452 167.886 131.626 167.886 131.8L167.713 132.148C167.539 132.321 167.539 132.495 167.365 132.321Z" fill="white"/>
</g>
<g opacity="0.5">
<path opacity="0.5" d="M159.719 29.1869H159.372C159.198 29.1869 159.198 29.013 159.198 29.013V28.6651C159.198 28.4912 159.372 28.4912 159.372 28.4912H159.719C159.893 28.4912 159.893 28.6651 159.893 28.6651V29.013C159.893 29.1869 159.719 29.1869 159.719 29.1869Z" fill="white"/>
<path opacity="0.5" d="M155.896 80.8412H155.549C155.375 80.8412 155.375 80.6672 155.375 80.6672V80.1455C155.375 79.9716 155.549 79.9716 155.549 79.9716H155.896C156.07 79.9716 156.07 80.1455 156.07 80.1455V80.4933C156.244 80.6672 156.07 80.8412 155.896 80.8412Z" fill="white"/>
<path opacity="0.5" d="M134.002 54.9271H133.654C133.48 54.9271 133.48 54.7531 133.48 54.7531V54.4053C133.48 54.2314 133.654 54.2314 133.654 54.2314H134.002C134.176 54.2314 134.176 54.4053 134.176 54.4053V54.7531L134.002 54.9271Z" fill="white"/>
<path opacity="0.5" d="M116.625 73.1887H116.277C116.104 73.1887 116.104 73.0147 116.104 73.0147V72.6669C116.104 72.493 116.277 72.493 116.277 72.493H116.625C116.799 72.493 116.799 72.6669 116.799 72.6669V73.0147C116.799 73.1887 116.625 73.1887 116.625 73.1887Z" fill="white"/>
<path opacity="0.5" d="M102.028 41.0135L101.681 40.8395C101.507 40.8395 101.507 40.6656 101.507 40.4917L101.681 40.1439C101.681 39.9699 101.854 39.9699 102.028 39.9699L102.376 40.1439C102.549 40.1439 102.549 40.3178 102.549 40.4917L102.376 40.8395C102.202 41.0135 102.202 41.1874 102.028 41.0135Z" fill="white"/>
<path opacity="0.5" d="M95.9466 88.1458L95.599 87.9718C95.4253 87.9718 95.4253 87.7979 95.4253 87.624L95.599 87.2762C95.599 87.1022 95.7728 87.1022 95.9466 87.1022L96.2941 87.2762C96.4679 87.2762 96.4679 87.4501 96.4679 87.624L96.2941 87.9718C96.1204 88.1458 96.1203 88.1458 95.9466 88.1458Z" fill="white"/>
<path opacity="0.5" d="M76.8321 43.2744L76.4846 43.1005C76.3108 43.1005 76.3108 42.9266 76.3108 42.7527L76.4846 42.4048C76.4846 42.2309 76.6583 42.2309 76.8321 42.2309L77.1796 42.4048C77.3534 42.4048 77.3534 42.5787 77.3534 42.7527L77.1796 43.1005C77.0058 43.2744 77.0058 43.2744 76.8321 43.2744Z" fill="white"/>
<path opacity="0.5" d="M60.6719 104.146L60.3244 103.973C60.1506 103.973 60.1506 103.799 60.1506 103.625L60.3244 103.277C60.3244 103.103 60.4982 103.103 60.6719 103.103L61.0195 103.277C61.1932 103.277 61.1932 103.451 61.1932 103.625L61.0195 103.973C60.8457 104.146 60.6719 104.146 60.6719 104.146Z" fill="white"/>
<path opacity="0.5" d="M66.5799 72.1451L66.2324 71.9712C66.0586 71.9712 66.0586 71.7973 66.0586 71.6234L66.2324 71.2755C66.2324 71.1016 66.4061 71.1016 66.5799 71.1016L66.9274 71.2755C67.1012 71.2755 67.1012 71.4494 67.1012 71.6234L66.9274 71.9712C66.7537 72.1451 66.7537 72.319 66.5799 72.1451Z" fill="white"/>
<path opacity="0.5" d="M175.358 56.8402L175.011 56.6662C174.837 56.6662 174.837 56.4923 174.837 56.3184L175.011 55.9705C175.011 55.7966 175.184 55.7966 175.358 55.7966L175.706 55.9705C175.88 55.9705 175.879 56.1445 175.879 56.3184L175.706 56.6662C175.706 56.8402 175.532 57.0141 175.358 56.8402Z" fill="white"/>
<path opacity="0.5" d="M189.607 88.6675L189.26 88.4936C189.086 88.4936 189.086 88.3197 189.086 88.1458L189.26 87.7979C189.26 87.624 189.433 87.624 189.607 87.624L189.955 87.7979C190.129 87.7979 190.129 87.9719 190.129 88.1458L189.955 88.4936C189.781 88.6675 189.607 88.8415 189.607 88.6675Z" fill="white"/>
<path opacity="0.5" d="M222.796 85.7109L222.449 85.537C222.275 85.537 222.275 85.363 222.275 85.1891L222.449 84.8413C222.449 84.6674 222.622 84.6674 222.796 84.6674L223.144 84.8413C223.317 84.8413 223.317 85.0152 223.317 85.1891L223.144 85.537C223.144 85.7109 222.97 85.8848 222.796 85.7109Z" fill="white"/>
<path opacity="0.5" d="M244.865 75.9714L244.517 75.7975C244.344 75.7975 244.344 75.6235 244.344 75.4496L244.517 75.1018C244.517 74.9279 244.691 74.9279 244.865 74.9279L245.213 75.1018C245.386 75.1018 245.386 75.2757 245.386 75.4496L245.213 75.7975C245.039 75.9714 244.865 75.9714 244.865 75.9714Z" fill="white"/>
<path opacity="0.5" d="M98.9007 116.321H98.5531C98.3794 116.321 98.3794 116.147 98.3794 116.147V115.799C98.3794 115.625 98.5531 115.625 98.5531 115.625H98.9007C99.0745 115.625 99.0744 115.799 99.0744 115.799V116.147L98.9007 116.321Z" fill="white"/>
<path opacity="0.5" d="M138.346 90.5807L137.998 90.4068C137.824 90.4068 137.824 90.2328 137.824 90.0589L137.998 89.7111C137.998 89.5372 138.172 89.5372 138.346 89.5372L138.693 89.7111C138.867 89.7111 138.867 89.885 138.867 90.0589L138.693 90.4068C138.519 90.5807 138.346 90.7546 138.346 90.5807Z" fill="white"/>
<path opacity="0.5" d="M45.7278 77.8845L45.3803 77.7105C45.2066 77.7105 45.2065 77.5366 45.2065 77.3627L45.3803 77.0149C45.3803 76.8409 45.5541 76.8409 45.7278 76.8409L46.0754 77.0149C46.2491 77.0149 46.2491 77.1888 46.2491 77.3627L46.0754 77.7105C45.9016 77.8845 45.7278 77.8845 45.7278 77.8845Z" fill="white"/>
<path opacity="0.5" d="M114.018 106.581L113.671 106.407C113.497 106.407 113.497 106.233 113.497 106.06L113.671 105.712C113.671 105.538 113.845 105.538 114.018 105.538L114.366 105.712C114.54 105.712 114.54 105.886 114.54 106.06L114.366 106.407C114.192 106.581 114.192 106.581 114.018 106.581Z" fill="white"/>
<path opacity="0.5" d="M153.116 49.1877L152.769 49.0138C152.595 49.0138 152.595 48.8398 152.595 48.6659L152.769 48.3181C152.769 48.1442 152.942 48.1442 153.116 48.1442L153.464 48.3181C153.637 48.3181 153.637 48.492 153.637 48.6659L153.464 49.0138C153.29 49.1877 153.29 49.1877 153.116 49.1877Z" fill="white"/>
</g>
<path opacity="0.8" d="M182.83 219.803C158.85 233.717 119.753 233.717 95.7729 219.803C83.2617 212.499 77.1798 202.933 77.7011 193.367C62.5834 164.671 40.6887 137.539 0.374756 65.1883C66.2325 -10.4669 169.971 -27.5111 269.888 53.0139C280.14 61.3621 209.417 175.106 200.902 193.367C201.423 202.933 195.515 212.672 182.83 219.803Z" fill="url(#paint17_linear_30_3839)"/>
<defs>
<linearGradient id="paint0_linear_30_3839" x1="135.595" y1="97.7376" x2="135.595" y2="175.856" gradientUnits="userSpaceOnUse">
<stop offset="0.0873016" stop-color="#EB5757"/>
<stop offset="0.9709" stop-color="#3C53D7"/>
</linearGradient>
<linearGradient id="paint1_linear_30_3839" x1="129.841" y1="100.936" x2="129.841" y2="175.345" gradientUnits="userSpaceOnUse">
<stop offset="0.0873016" stop-color="#EB5757"/>
<stop offset="0.9709" stop-color="#3C53D7"/>
</linearGradient>
<linearGradient id="paint2_linear_30_3839" x1="284.261" y1="363.771" x2="26.353" y2="282.856" gradientUnits="userSpaceOnUse">
<stop stop-color="#000053"/>
<stop offset="0.5425" stop-color="#23007F"/>
<stop offset="1" stop-color="#4F34D7"/>
</linearGradient>
<linearGradient id="paint3_linear_30_3839" x1="137.519" y1="289.277" x2="137.519" y2="437.44" gradientUnits="userSpaceOnUse">
<stop offset="0.0873016" stop-color="#EB5757"/>
<stop offset="0.9709" stop-color="#3C53D7"/>
</linearGradient>
<linearGradient id="paint4_linear_30_3839" x1="90.6433" y1="245.493" x2="201.633" y2="383.797" gradientUnits="userSpaceOnUse">
<stop stop-color="#3C53D7"/>
<stop offset="1" stop-color="#1A1B6E"/>
</linearGradient>
<radialGradient id="paint5_radial_30_3839" cx="0" cy="0" r="1" gradientUnits="userSpaceOnUse" gradientTransform="translate(136.38 303.686) scale(68.7558 58.0582)">
<stop stop-color="#2F3C9E"/>
<stop offset="0.1211" stop-color="#253184"/>
<stop offset="0.2995" stop-color="#192364"/>
<stop offset="0.4722" stop-color="#11194D"/>
<stop offset="0.635" stop-color="#0C1340"/>
<stop offset="0.7778" stop-color="#0A113B"/>
<stop offset="1" stop-color="#000020"/>
</radialGradient>
<radialGradient id="paint6_radial_30_3839" cx="0" cy="0" r="1" gradientUnits="userSpaceOnUse" gradientTransform="translate(138.253 301.118) scale(57.8878 48.8811)">
<stop stop-color="#2F3C9E"/>
<stop offset="0.1211" stop-color="#253184"/>
<stop offset="0.2995" stop-color="#192364"/>
<stop offset="0.4722" stop-color="#11194D"/>
<stop offset="0.635" stop-color="#0C1340"/>
<stop offset="0.7778" stop-color="#0A113B"/>
<stop offset="1" stop-color="#000020"/>
</radialGradient>
<linearGradient id="paint7_linear_30_3839" x1="139.148" y1="295.452" x2="139.148" y2="348.095" gradientUnits="userSpaceOnUse">
<stop offset="0.0873016" stop-color="#EB5757"/>
<stop offset="0.9709" stop-color="#3C53D7"/>
</linearGradient>
<linearGradient id="paint8_linear_30_3839" x1="139.234" y1="268.548" x2="139.234" y2="338.173" gradientUnits="userSpaceOnUse">
<stop offset="0.0873016" stop-color="#EB5757"/>
<stop offset="0.9709" stop-color="#3C53D7"/>
</linearGradient>
<linearGradient id="paint9_linear_30_3839" x1="139.148" y1="275.277" x2="139.148" y2="327.92" gradientUnits="userSpaceOnUse">
<stop offset="0.0873016" stop-color="#EB5757"/>
<stop offset="0.9709" stop-color="#3C53D7"/>
</linearGradient>
<linearGradient id="paint10_linear_30_3839" x1="139.234" y1="248.2" x2="139.234" y2="317.824" gradientUnits="userSpaceOnUse">
<stop offset="0.0873016" stop-color="#EB5757"/>
<stop offset="0.9709" stop-color="#3C53D7"/>
</linearGradient>
<linearGradient id="paint11_linear_30_3839" x1="139.148" y1="254.928" x2="139.148" y2="307.572" gradientUnits="userSpaceOnUse">
<stop offset="0.0873016" stop-color="#EB5757"/>
<stop offset="0.9709" stop-color="#3C53D7"/>
</linearGradient>
<linearGradient id="paint12_linear_30_3839" x1="139.234" y1="227.851" x2="139.234" y2="297.476" gradientUnits="userSpaceOnUse">
<stop offset="0.0873016" stop-color="#EB5757"/>
<stop offset="0.9709" stop-color="#3C53D7"/>
</linearGradient>
<linearGradient id="paint13_linear_30_3839" x1="139.148" y1="234.58" x2="139.148" y2="287.223" gradientUnits="userSpaceOnUse">
<stop offset="0.0873016" stop-color="#EB5757"/>
<stop offset="0.9709" stop-color="#3C53D7"/>
</linearGradient>
<linearGradient id="paint14_linear_30_3839" x1="139.148" y1="207.676" x2="139.148" y2="277.301" gradientUnits="userSpaceOnUse">
<stop offset="0.0873016" stop-color="#EB5757"/>
<stop offset="0.9709" stop-color="#3C53D7"/>
</linearGradient>
<linearGradient id="paint15_linear_30_3839" x1="139.148" y1="214.405" x2="139.148" y2="267.048" gradientUnits="userSpaceOnUse">
<stop offset="0.0873016" stop-color="#EB5757"/>
<stop offset="0.9709" stop-color="#3C53D7"/>
</linearGradient>
<linearGradient id="paint16_linear_30_3839" x1="139.147" y1="187.328" x2="139.147" y2="256.952" gradientUnits="userSpaceOnUse">
<stop offset="0.0873016" stop-color="#EB5757"/>
<stop offset="0.9709" stop-color="#3C53D7"/>
</linearGradient>
<linearGradient id="paint17_linear_30_3839" x1="133.487" y1="19.5265" x2="145.603" y2="243.463" gradientUnits="userSpaceOnUse">
<stop stop-color="#F1EBF9" stop-opacity="0"/>
<stop offset="0.252" stop-color="#F2EEFA" stop-opacity="0"/>
<stop offset="0.2989" stop-color="#F3F0FA" stop-opacity="0"/>
<stop offset="0.4873" stop-color="#EDF9FD" stop-opacity="0.137"/>
<stop offset="0.5741" stop-color="#E9FFFF" stop-opacity="0.2"/>
<stop offset="1" stop-color="#E6FFFF"/>
</linearGradient>
</defs>
</svg>
